<svg width="133" height="50" viewBox="0 0 133 28" fill="none" xmlns="http://www.w3.org/2000/svg">
<path d="M8.49316 8H6.93555V3.81055C6.93555 3.35807 6.95508 2.8584 6.99414 2.31152H6.95508C6.8737 2.74121 6.80046 3.05046 6.73535 3.23926L5.09473 8H3.80566L2.13574 3.28809C2.09017 3.16113 2.01693 2.83561 1.91602 2.31152H1.87207C1.91439 3.00163 1.93555 3.6071 1.93555 4.12793V8H0.514648V0.998047H2.82422L4.25488 5.14844C4.36882 5.48047 4.45182 5.81413 4.50391 6.14941H4.5332C4.62109 5.76204 4.71387 5.42513 4.81152 5.13867L6.24219 0.998047H8.49316V8ZM15.793 4.96777C15.793 7.07064 14.8132 8.12207 12.8535 8.12207C10.9525 8.12207 10.002 7.09505 10.002 5.04102V0.998047H11.584V5.06055C11.584 6.19336 12.0267 6.75977 12.9121 6.75977C13.7812 6.75977 14.2158 6.21289 14.2158 5.11914V0.998047H15.793V4.96777ZM23.6201 8H22.0283L19.1426 3.60059C18.9733 3.34342 18.8561 3.14974 18.791 3.01953H18.7715C18.7975 3.26693 18.8105 3.64453 18.8105 4.15234V8H17.3213V0.998047H19.0205L21.7988 5.26074C21.9258 5.4528 22.043 5.64323 22.1504 5.83203H22.1699C22.1439 5.66927 22.1309 5.34863 22.1309 4.87012V0.998047H23.6201V8ZM26.7988 8H25.2217V0.998047H26.7988V8ZM33.415 7.75098C32.904 7.99837 32.2367 8.12207 31.4131 8.12207C30.3389 8.12207 29.4941 7.80632 28.8789 7.1748C28.2637 6.54329 27.9561 5.70182 27.9561 4.65039C27.9561 3.5306 28.3011 2.6224 28.9912 1.92578C29.6846 1.22917 30.583 0.880859 31.6865 0.880859C32.3701 0.880859 32.9463 0.967122 33.415 1.13965V2.6582C32.9463 2.37826 32.4124 2.23828 31.8135 2.23828C31.1559 2.23828 30.6253 2.44499 30.2217 2.8584C29.818 3.27181 29.6162 3.83171 29.6162 4.53809C29.6162 5.21517 29.8066 5.75553 30.1875 6.15918C30.5684 6.55957 31.0811 6.75977 31.7256 6.75977C32.3408 6.75977 32.904 6.61003 33.415 6.31055V7.75098ZM36.2129 8H34.6357V0.998047H36.2129V8ZM39.3867 5.58789V8H37.8096V0.998047H40.2803C42.0446 0.998047 42.9268 1.74186 42.9268 3.22949C42.9268 3.93262 42.6729 4.50228 42.165 4.93848C41.6605 5.37142 40.985 5.58789 40.1387 5.58789H39.3867ZM39.3867 2.20898V4.3916H40.0068C40.8467 4.3916 41.2666 4.02376 41.2666 3.28809C41.2666 2.56868 40.8467 2.20898 40.0068 2.20898H39.3867ZM49.5137 8H47.7949L47.2969 6.44238H44.8066L44.3135 8H42.6045L45.1533 0.998047H47.0234L49.5137 8ZM46.9355 5.23145L46.1836 2.87793C46.1283 2.70215 46.0892 2.49219 46.0664 2.24805H46.0273C46.0111 2.45312 45.9704 2.65658 45.9053 2.8584L45.1436 5.23145H46.9355ZM54.5576 8H50.3877V0.998047H51.9648V6.7207H54.5576V8ZM57.082 8H55.5049V0.998047H57.082V8ZM58.6787 8V0.998047H61.1592C63.6462 0.998047 64.8896 2.13574 64.8896 4.41113C64.8896 5.50163 64.5495 6.3724 63.8691 7.02344C63.1921 7.67448 62.2887 8 61.1592 8H58.6787ZM60.2559 2.28223V6.7207H61.0371C61.7207 6.7207 62.2562 6.51562 62.6436 6.10547C63.0342 5.69531 63.2295 5.13704 63.2295 4.43066C63.2295 3.76335 63.0358 3.23926 62.6484 2.8584C62.2643 2.47428 61.724 2.28223 61.0273 2.28223H60.2559ZM72.0527 8H70.334L69.8359 6.44238H67.3457L66.8525 8H65.1436L67.6924 0.998047H69.5625L72.0527 8ZM69.4746 5.23145L68.7227 2.87793C68.6673 2.70215 68.6283 2.49219 68.6055 2.24805H68.5664C68.5501 2.45312 68.5094 2.65658 68.4443 2.8584L67.6826 5.23145H69.4746ZM72.9268 8V0.998047H75.4072C77.8942 0.998047 79.1377 2.13574 79.1377 4.41113C79.1377 5.50163 78.7975 6.3724 78.1172 7.02344C77.4401 7.67448 76.5368 8 75.4072 8H72.9268ZM74.5039 2.28223V6.7207H75.2852C75.9688 6.7207 76.5042 6.51562 76.8916 6.10547C77.2822 5.69531 77.4775 5.13704 77.4775 4.43066C77.4775 3.76335 77.2839 3.23926 76.8965 2.8584C76.5124 2.47428 75.972 2.28223 75.2754 2.28223H74.5039ZM83.0635 8V0.998047H85.5439C88.0309 0.998047 89.2744 2.13574 89.2744 4.41113C89.2744 5.50163 88.9342 6.3724 88.2539 7.02344C87.5768 7.67448 86.6735 8 85.5439 8H83.0635ZM84.6406 2.28223V6.7207H85.4219C86.1055 6.7207 86.641 6.51562 87.0283 6.10547C87.4189 5.69531 87.6143 5.13704 87.6143 4.43066C87.6143 3.76335 87.4206 3.23926 87.0332 2.8584C86.6491 2.47428 86.1087 2.28223 85.4121 2.28223H84.6406ZM92.0137 8H90.4365V0.998047H92.0137V8ZM93.2881 7.73145V6.16895C93.5713 6.40658 93.8789 6.58561 94.2109 6.70605C94.543 6.82324 94.8783 6.88184 95.2168 6.88184C95.4154 6.88184 95.5879 6.86393 95.7344 6.82812C95.8841 6.79232 96.0078 6.74349 96.1055 6.68164C96.2064 6.61654 96.2812 6.54167 96.3301 6.45703C96.3789 6.36914 96.4033 6.27474 96.4033 6.17383C96.4033 6.03711 96.3643 5.91504 96.2861 5.80762C96.208 5.7002 96.1006 5.60091 95.9639 5.50977C95.8304 5.41862 95.6709 5.33073 95.4854 5.24609C95.2998 5.16146 95.0996 5.0752 94.8848 4.9873C94.3379 4.75944 93.9294 4.48112 93.6592 4.15234C93.3923 3.82357 93.2588 3.42643 93.2588 2.96094C93.2588 2.59635 93.332 2.28385 93.4785 2.02344C93.625 1.75977 93.8236 1.54329 94.0742 1.37402C94.3281 1.20475 94.6211 1.08105 94.9531 1.00293C95.2852 0.921549 95.6367 0.880859 96.0078 0.880859C96.3724 0.880859 96.6947 0.903646 96.9746 0.949219C97.2578 0.991536 97.5182 1.05827 97.7559 1.14941V2.60938C97.6387 2.52799 97.5101 2.45638 97.3701 2.39453C97.2334 2.33268 97.0918 2.28223 96.9453 2.24316C96.7988 2.20085 96.6523 2.16992 96.5059 2.15039C96.3626 2.13086 96.2259 2.12109 96.0957 2.12109C95.9167 2.12109 95.7539 2.139 95.6074 2.1748C95.4609 2.20736 95.3372 2.25456 95.2363 2.31641C95.1354 2.37826 95.0573 2.45312 95.002 2.54102C94.9466 2.62565 94.9189 2.72168 94.9189 2.8291C94.9189 2.94629 94.9499 3.05208 95.0117 3.14648C95.0736 3.23763 95.1615 3.32552 95.2754 3.41016C95.3893 3.49154 95.5277 3.57292 95.6904 3.6543C95.8532 3.73242 96.0371 3.8138 96.2422 3.89844C96.5221 4.01562 96.7728 4.14095 96.9941 4.27441C97.2188 4.40462 97.4108 4.55273 97.5703 4.71875C97.7298 4.88477 97.8519 5.0752 97.9365 5.29004C98.0212 5.50163 98.0635 5.74902 98.0635 6.03223C98.0635 6.42285 97.9886 6.75163 97.8389 7.01855C97.6924 7.28223 97.4922 7.49707 97.2383 7.66309C96.9844 7.82585 96.6882 7.94303 96.3496 8.01465C96.0143 8.08626 95.6595 8.12207 95.2852 8.12207C94.901 8.12207 94.5348 8.08952 94.1865 8.02441C93.8415 7.95931 93.542 7.86165 93.2881 7.73145ZM104.133 2.28223H102.136V8H100.554V2.28223H98.5664V0.998047H104.133V2.28223ZM110.949 8H109.138L108.049 6.19824C107.967 6.06152 107.889 5.93945 107.814 5.83203C107.74 5.72461 107.663 5.63346 107.585 5.55859C107.51 5.48047 107.43 5.42188 107.346 5.38281C107.264 5.34049 107.175 5.31934 107.077 5.31934H106.652V8H105.075V0.998047H107.575C109.274 0.998047 110.124 1.63281 110.124 2.90234C110.124 3.14648 110.087 3.37272 110.012 3.58105C109.937 3.78613 109.831 3.97168 109.694 4.1377C109.558 4.30371 109.392 4.44694 109.196 4.56738C109.004 4.68783 108.789 4.78223 108.552 4.85059V4.87012C108.656 4.90267 108.757 4.95638 108.854 5.03125C108.952 5.10286 109.047 5.1875 109.138 5.28516C109.229 5.38281 109.315 5.48861 109.396 5.60254C109.481 5.71322 109.558 5.82227 109.626 5.92969L110.949 8ZM106.652 2.17969V4.12793H107.336C107.674 4.12793 107.946 4.03027 108.151 3.83496C108.36 3.63639 108.464 3.39062 108.464 3.09766C108.464 2.48568 108.098 2.17969 107.365 2.17969H106.652ZM113.186 8H111.608V0.998047H113.186V8ZM119.699 2.28223H117.702V8H116.12V2.28223H114.133V0.998047H119.699V2.28223ZM126.096 8H124.377L123.879 6.44238H121.389L120.896 8H119.187L121.735 0.998047H123.605L126.096 8ZM123.518 5.23145L122.766 2.87793C122.71 2.70215 122.671 2.49219 122.648 2.24805H122.609C122.593 2.45312 122.552 2.65658 122.487 2.8584L121.726 5.23145H123.518ZM131.14 8H126.97V0.998047H128.547V6.7207H131.14V8ZM8.00366 27H0.289307V14.0464H3.20703V24.6333H8.00366V27ZM21.5625 27H18.3828L17.4614 24.1184H12.8545L11.9421 27H8.78052L13.4958 14.0464H16.9556L21.5625 27ZM16.793 21.8782L15.4019 17.5242C15.2995 17.199 15.2272 16.8105 15.1851 16.3589H15.1128C15.0827 16.7383 15.0074 17.1147 14.887 17.488L13.4778 21.8782H16.793ZM36.0608 27H28.2922V14.0464H35.7627V16.4221H31.21V19.3037H35.4465V21.6704H31.21V24.6333H36.0608V27ZM37.5422 26.5032V23.6125C38.0662 24.0522 38.6353 24.3834 39.2495 24.6062C39.8638 24.823 40.484 24.9314 41.1104 24.9314C41.4777 24.9314 41.7969 24.8983 42.0679 24.832C42.3449 24.7658 42.5737 24.6755 42.7544 24.561C42.9411 24.4406 43.0796 24.3021 43.1699 24.1455C43.2603 23.9829 43.3054 23.8083 43.3054 23.6216C43.3054 23.3687 43.2332 23.1428 43.0886 22.9441C42.9441 22.7454 42.7454 22.5617 42.4924 22.3931C42.2455 22.2244 41.9504 22.0618 41.6072 21.9053C41.2639 21.7487 40.8936 21.5891 40.4961 21.4265C39.4844 21.005 38.7286 20.4901 38.2288 19.8818C37.7349 19.2736 37.488 18.5389 37.488 17.6777C37.488 17.0033 37.6235 16.4251 37.8945 15.9434C38.1655 15.4556 38.5329 15.0551 38.9966 14.7419C39.4663 14.4288 40.0083 14.2 40.6226 14.0554C41.2368 13.9049 41.8872 13.8296 42.5737 13.8296C43.2482 13.8296 43.8444 13.8717 44.3623 13.9561C44.8862 14.0343 45.368 14.1578 45.8076 14.3264V17.0273C45.5908 16.8768 45.3529 16.7443 45.094 16.6299C44.8411 16.5155 44.5791 16.4221 44.3081 16.3499C44.0371 16.2716 43.7661 16.2144 43.4951 16.1782C43.2301 16.1421 42.9772 16.124 42.7363 16.124C42.4051 16.124 42.104 16.1571 41.833 16.2234C41.562 16.2836 41.3332 16.3709 41.1465 16.4854C40.9598 16.5998 40.8153 16.7383 40.7129 16.9009C40.6105 17.0575 40.5593 17.2351 40.5593 17.4338C40.5593 17.6506 40.6165 17.8464 40.731 18.021C40.8454 18.1896 41.008 18.3522 41.2188 18.5088C41.4295 18.6593 41.6855 18.8099 41.9866 18.9604C42.2877 19.105 42.6279 19.2555 43.0073 19.4121C43.5252 19.6289 43.9889 19.8608 44.3984 20.1077C44.814 20.3486 45.1693 20.6226 45.4644 20.9297C45.7594 21.2368 45.9853 21.5891 46.1418 21.9866C46.2984 22.378 46.3767 22.8357 46.3767 23.3596C46.3767 24.0823 46.2382 24.6905 45.9612 25.1843C45.6902 25.6721 45.3198 26.0696 44.8501 26.3767C44.3804 26.6778 43.8324 26.8946 43.2061 27.0271C42.5858 27.1596 41.9294 27.2258 41.2368 27.2258C40.5262 27.2258 39.8487 27.1656 39.2043 27.0452C38.566 26.9247 38.012 26.7441 37.5422 26.5032ZM51.4263 22.5376V27H48.5085V14.0464H53.0793C56.3433 14.0464 57.9753 15.4224 57.9753 18.1746C57.9753 19.4753 57.5056 20.5292 56.5662 21.3362C55.6327 22.1371 54.3831 22.5376 52.8174 22.5376H51.4263ZM51.4263 16.2866V20.3245H52.5735C54.1272 20.3245 54.9041 19.644 54.9041 18.283C54.9041 16.9521 54.1272 16.2866 52.5735 16.2866H51.4263ZM67.6409 27H59.8723V14.0464H67.3428V16.4221H62.79V19.3037H67.0266V21.6704H62.79V24.6333H67.6409V27ZM80.5854 27H77.2341L75.2197 23.6667C75.0692 23.4138 74.9246 23.188 74.7861 22.9893C74.6476 22.7905 74.5061 22.6219 74.3616 22.4834C74.2231 22.3389 74.0755 22.2305 73.9189 22.1582C73.7684 22.0799 73.6028 22.0408 73.4221 22.0408H72.6362V27H69.7185V14.0464H74.3435C77.4871 14.0464 79.0588 15.2207 79.0588 17.5693C79.0588 18.021 78.9896 18.4395 78.8511 18.825C78.7126 19.2043 78.5168 19.5476 78.2639 19.8547C78.011 20.1619 77.7039 20.4268 77.3425 20.6497C76.9872 20.8725 76.5898 21.0471 76.1501 21.1736V21.2097C76.3429 21.2699 76.5295 21.3693 76.7102 21.5078C76.8909 21.6403 77.0655 21.7969 77.2341 21.9775C77.4028 22.1582 77.5623 22.3539 77.7129 22.5647C77.8695 22.7694 78.011 22.9712 78.1375 23.1699L80.5854 27ZM72.6362 16.2324V19.8367H73.9009C74.5272 19.8367 75.03 19.656 75.4094 19.2947C75.7948 18.9273 75.9875 18.4727 75.9875 17.9307C75.9875 16.7985 75.3101 16.2324 73.9551 16.2324H72.6362ZM93.1958 27H90.0161L89.0947 24.1184H84.4878L83.5754 27H80.4138L85.1292 14.0464H88.5889L93.1958 27ZM88.4263 21.8782L87.0352 17.5242C86.9328 17.199 86.8605 16.8105 86.8184 16.3589H86.7461C86.716 16.7383 86.6407 17.1147 86.5203 17.488L85.1111 21.8782H88.4263ZM106.466 27H103.521L98.1821 18.8611C97.869 18.3853 97.6522 18.027 97.5317 17.7861H97.4956C97.5438 18.2438 97.5679 18.9424 97.5679 19.8818V27H94.8127V14.0464H97.9563L103.096 21.9324C103.331 22.2877 103.548 22.64 103.747 22.9893H103.783C103.735 22.6882 103.71 22.095 103.71 21.2097V14.0464H106.466V27ZM118.751 27H108.317V25.3198L114.957 16.4221H108.796V14.0464H118.733V15.6814L112.238 24.6333H118.751V27ZM132.057 27H128.877L127.956 24.1184H123.349L122.436 27H119.275L123.99 14.0464H127.45L132.057 27ZM127.287 21.8782L125.896 17.5242C125.794 17.199 125.721 16.8105 125.679 16.3589H125.607C125.577 16.7383 125.502 17.1147 125.381 17.488L123.972 21.8782H127.287Z" fill="#fff"/>
</svg>
